Coordinates
version=1
nRows=12
nColumns=24
inDegrees=yes

Units are S.I. units (second, meters, Newtons, ...)
Angles are in degrees.

endheader
time	pelvis_tilt	pelvis_list	pelvis_rotation	pelvis_tx	pelvis_ty	pelvis_tz	hip_flexion_r	hip_adduction_r	hip_rotation_r	knee_angle_r	ankle_angle_r	subtalar_angle_r	mtp_angle_r	hip_flexion_l	hip_adduction_l	hip_rotation_l	knee_angle_l	ankle_angle_l	subtalar_angle_l	mtp_angle_l	lumbar_extension	lumbar_bending	lumbar_rotation
      7.69000000	      2.71394562	      0.25937787	      1.09941499	     -1.04401151	      0.87488221	      0.22381950	    -15.03983987	      3.51800854	     12.91870461	    -10.46295691	     18.92723517	     -3.73607685	      0.00000000	     19.76248864	      2.50681081	      0.77606607	     -6.39744532	      3.20322883	     -3.90625410	      0.00000000	    -23.64838852	     -2.87206121	     -5.20530480
      7.70000000	      2.79629826	      0.47619089	      0.89164626	     -1.03396593	      0.87473861	      0.22257197	    -15.22269350	      3.23646916	     12.94071783	    -11.64444130	     18.80780990	     -3.28470143	      0.00000000	     19.43717365	      2.77546486	      0.67618765	     -7.00200850	      2.82301003	     -4.60192410	      0.00000000	    -23.62556687	     -3.22276592	     -5.14313103
      7.71000000	      2.91448704	      0.69199146	      0.78146408	     -1.02383093	      0.87476584	      0.22113596	    -15.35785187	      2.97366102	     12.62367307	    -12.98221165	     18.61163841	     -2.57158523	      0.00000000	     19.07618244	      3.08546912	      0.83484655	     -7.71702756	      2.24083022	     -5.58211679	      0.00000000	    -23.64998982	     -3.52249076	     -5.21168607
      7.72000000	      2.96792685	      1.00602963	      0.60851673	     -1.01336816	      0.87493708	      0.21987954	    -15.35935830	      2.60312664	     12.30353873	    -14.45286750	     18.23573729	     -1.91234463	      0.00000000	     18.75259874	      3.46738586	      0.80173572	     -8.47218198	      1.63045034	     -6.37058641	      0.00000000	    -23.51863239	     -3.98521229	     -5.32755082
      7.73000000	      3.11462992	      1.30172708	      0.55454233	     -1.00297507	      0.87541369	      0.21831689	    -15.31415214	      2.23981201	     11.40492720	    -16.14683777	     17.78791380	     -0.74324895	      0.00000000	     18.34927783	      3.89089769	      1.12056023	     -9.27863799	      0.90088447	     -7.30921491	      0.00000000	    -23.54548576	     -4.34479528	     -5.50861673
      7.74000000	      3.27277634	      1.62692479	      0.58664377	     -0.99247703	      0.87611289	      0.21664026	    -15.18117511	      1.84068850	     10.21805937	    -17.99670129	     17.08690834	      0.48771652	      0.00000000	     17.93893838	      4.37840705	      1.55444760	    -10.11631381	      0.24869591	     -8.09355965	      0.00000000	    -23.57543481	     -4.70697840	     -5.80732907
      7.75000000	      3.45591128	      1.96409197	      0.66335746	     -0.98203005	      0.87705227	      0.21488017	    -14.92810948	      1.39636837	      8.77105531	    -20.05886033	     16.14279444	      1.83104668	      0.00000000	     17.50286240	      4.90270453	      2.11727960	    -10.96248858	     -0.30895011	     -8.77553134	      0.00000000	    -23.66539024	     -5.06860082	     -6.10809756
      7.76000000	      3.65512651	      2.29273125	      0.73453684	     -0.97149814	      0.87820771	      0.21299506	    -14.54499155	      0.88274534	      7.06093777	    -22.31951517	     14.84913276	      3.24468141	      0.00000000	     16.99305904	      5.43446982	      2.67343916	    -11.72509552	     -0.63344222	     -9.35417625	      0.00000000	    -23.73746067	     -5.37244599	     -6.46983497
      7.77000000	      3.85015433	      2.63706925	      0.85853046	     -0.96109976	      0.87949131	      0.21103195	    -14.00340764	      0.30162769	      5.22305579	    -24.78628904	     13.24006245	      4.57710919	      0.00000000	     16.45407586	      6.00440937	      3.32442857	    -12.43198837	     -0.83480944	     -9.88338491	      0.00000000	    -23.85098502	     -5.68988288	     -6.85090902
      7.78000000	      4.03412894	      2.96469953	      0.97674172	     -0.95075894	      0.88085250	      0.20898577	    -13.30558942	     -0.34407693	      3.34253848	    -27.42280626	     11.25630970	      5.73452566	      0.00000000	     15.85036997	      6.56384655	      3.94506913	    -13.01173611	     -0.82222757	    -10.38951824	      0.00000000	    -23.94549794	     -5.95417313	     -7.24808222
      7.79000000	      4.18666099	      3.26238171	      1.09574993	     -0.94056940	      0.88219707	      0.20686128	    -12.43680858	     -1.02382324	      1.54289392	    -30.20001378	      8.92732419	      6.56158585	      0.00000000	     15.19392856	      7.10283061	      4.64016618	    -13.43971844	     -0.67011006	    -11.02354392	      0.00000000	    -24.01648736	     -6.15460953	     -7.64474281
      7.80000000	      4.31638798	      3.59231589	      1.12792936	     -0.93055268	      0.88355674	      0.20491758	    -11.40181002	     -1.80046941	     -0.01898906	    -33.10474670	      6.37689363	      7.13545283	      0.00000000	     14.50608742	      7.62114903	      4.90436324	    -13.74398847	     -0.28815009	    -11.25558489	      0.00000000	    -24.08394002	     -6.42640078	     -8.00395556
